# xmcd CD database file generated by Grip 2.94
# 
# Track frame offsets:
#       183
#       20565
#       44258
#       56343
#       74245
#       82233
#       98713
#       106683
#       121670
#       136683
#       147558
#       164320
#       174513
#       189913
#       199988
#       211658
#       223313
#       234370
#       246720
#       263713
#       275958
# 
# Disc length: 3844 seconds
# 
# Revision: 3
# Processed by: cddbd v1.4b41PL1 Copyright (c) Steve Scherf et al.
# Submitted via: Grip 2.94
# 
DISCID=400f0215
DTITLE=Buddy Guy - Buddy Guy On Chess Vol. 2
DYEAR=1900
DGENRE=
TTITLE0=Wee Wee Baby
TTITLE1=Don't Know Which Way to Go
TTITLE2=Buddy's Boogie
TTITLE3=Stick Around
TTITLE4=Untitled Instrumental
TTITLE5=Moanin'
TTITLE6=I Dig Your Wig
TTITLE7=My Time After Awhile
TTITLE8=Night Flight
TTITLE9=Crazy Love
TTITLE10=Every Girl I See
TTITLE11=Too Many Ways
TTITLE12=Leave My Girl Alone
TTITLE13=Go To Use Your Head
TTITLE14=Keep it to Myself
TTITLE15=My Mother
TTITLE16=She Suites Me to a Tee
TTITLE17=Mother in Law Blues
TTITLE18=Buddy's Groove
TTITLE19=Goin Home
TTITLE20=I Suffer With the Blues
EXTD=
EXTT0=
EXTT1=
EXTT2=
EXTT3=
EXTT4=
EXTT5=
EXTT6=
EXTT7=
EXTT8=
EXTT9=
EXTT10=
EXTT11=
EXTT12=
EXTT13=
EXTT14=
EXTT15=
EXTT16=
EXTT17=
EXTT18=
EXTT19=
EXTT20=
PLAYORDER=
